<?xml version="1.0" standalone="no"?>
<!DOCTYPE svg PUBLIC "-//W3C//DTD SVG 20010904//EN"
 "http://www.w3.org/TR/2001/REC-SVG-20010904/DTD/svg10.dtd">
<svg version="1.0" xmlns="http://www.w3.org/2000/svg"
 width="601.000000pt" height="601.000000pt" viewBox="0 0 601.000000 601.000000"
 preserveAspectRatio="xMidYMid meet">
<metadata>
Created by potrace 1.11, written by Peter Selinger 2001-2013
</metadata>
<g transform="translate(0.000000,601.000000) scale(0.100000,-0.100000)"
fill="#000000" stroke="none">
<path d="M2757 5594 c-1 -1 -67 -5 -147 -8 -80 -4 -163 -9 -185 -11 -22 -3
-58 -7 -80 -10 -22 -2 -65 -7 -95 -11 -30 -3 -58 -8 -61 -10 -4 -2 -31 -7 -60
-10 -101 -12 -179 -52 -256 -130 -74 -75 -130 -184 -112 -217 17 -29 46 -19
86 29 49 59 106 122 100 109 -3 -6 -8 -42 -12 -80 -4 -39 -8 -81 -11 -95 -2
-14 -6 -79 -9 -145 -3 -66 -8 -129 -10 -140 -3 -11 -12 -49 -21 -85 -30 -121
-20 -355 19 -485 2 -5 10 -30 17 -55 7 -25 17 -49 22 -54 4 -6 8 -18 8 -27 0
-10 4 -19 10 -21 8 -3 33 -84 44 -148 3 -14 5 -25 6 -25 1 0 3 -10 6 -22 2
-13 26 -90 53 -172 62 -188 200 -477 244 -509 9 -7 17 -17 17 -22 0 -22 137
-168 208 -222 31 -23 59 -45 62 -48 13 -14 112 -56 174 -75 l70 -21 0 -994 c1
-765 -2 -996 -11 -1006 -23 -23 -269 -141 -378 -181 -137 -51 -238 -79 -396
-108 -62 -12 -76 -15 -101 -26 -27 -11 -43 -44 -27 -55 5 -3 7 -9 5 -13 -3 -4
7 -14 22 -22 15 -8 29 -17 32 -20 6 -8 129 -45 175 -54 58 -11 91 -16 130 -20
22 -2 40 -4 40 -5 0 -1 16 -3 35 -5 19 -2 56 -6 81 -9 195 -24 762 -24 934 -1
17 2 53 7 80 10 28 2 61 7 75 9 14 3 45 7 70 10 66 9 234 55 238 66 2 6 9 10
16 10 19 0 46 34 46 58 0 12 -10 28 -22 36 -22 13 -153 43 -211 48 -15 1 -27
7 -27 12 0 5 -3 7 -6 4 -3 -4 -20 -2 -37 3 -18 6 -43 12 -57 15 -32 6 -134 41
-185 64 -22 10 -51 21 -64 25 -14 4 -88 40 -166 79 l-141 71 1 1001 0 1002 50
11 c70 16 188 74 254 126 44 34 145 138 180 185 19 25 41 52 50 61 9 8 27 35
39 60 109 205 118 225 159 329 35 87 101 306 117 385 3 17 10 50 16 75 5 25
11 54 14 65 2 11 11 43 20 70 38 119 46 193 40 405 -9 343 -15 465 -28 563 -4
36 12 30 35 -13 24 -44 33 -52 51 -45 13 5 14 12 6 38 -5 18 -10 37 -12 44 -1
7 -5 16 -9 19 -4 4 -7 14 -7 21 0 8 -20 44 -45 80 -25 36 -48 77 -51 90 -10
37 -109 79 -234 98 -77 13 -83 13 -150 20 -36 4 -78 8 -95 10 -89 12 -629 27
-638 19z m-123 -77 c-6 -20 -4 -20 29 6 22 17 38 23 42 17 5 -8 12 -7 22 2 12
10 18 9 29 -7 12 -17 18 -14 15 7 -1 11 30 2 38 -11 7 -10 9 -10 14 1 4 12 30
14 128 12 145 -2 142 -1 135 -13 -3 -5 1 -14 9 -21 13 -11 15 -9 13 10 -2 15
3 24 14 25 10 2 20 0 22 -4 3 -3 29 -6 60 -5 30 0 53 -3 50 -7 -3 -5 0 -9 5
-9 6 0 11 6 12 13 0 8 2 8 6 -2 5 -11 7 -11 15 0 6 10 7 6 2 -11 -6 -22 -5
-23 10 -11 13 11 19 11 32 0 15 -12 16 -11 11 11 -4 14 -4 19 -1 11 5 -11 8
-11 16 0 6 10 7 6 3 -11 l-6 -25 14 24 c9 16 16 19 19 11 3 -10 9 -10 28 0 14
7 22 9 18 5 -4 -5 -3 -14 3 -21 8 -10 4 -12 -21 -9 -17 2 -28 0 -25 -5 4 -6
-1 -7 -11 -3 -11 4 -15 3 -10 -5 12 -19 -15 -25 -29 -6 -17 22 -19 11 -4 -17
10 -19 9 -20 -11 -9 -11 6 -18 15 -15 20 3 6 -1 7 -10 4 -12 -5 -13 -9 -4 -20
9 -11 8 -18 -2 -31 -12 -15 -12 -16 5 -10 15 6 17 4 13 -14 -4 -16 -2 -19 11
-14 13 5 14 3 5 -6 -13 -13 -36 -3 -27 13 5 7 2 8 -5 4 -7 -5 -9 -15 -6 -25
12 -29 14 -50 5 -56 -16 -10 -70 -12 -70 -3 0 5 8 8 18 7 34 -3 53 1 47 11 -4
6 -11 8 -16 5 -5 -4 -9 -1 -9 4 0 6 5 11 10 11 19 0 10 16 -10 17 -11 1 -19
-1 -19 -5 3 -22 -3 -31 -21 -29 -11 1 -20 4 -20 7 0 3 -9 6 -20 7 -11 1 -18
-2 -16 -6 3 -4 -1 -8 -9 -8 -8 0 -12 4 -9 9 8 13 -10 10 -25 -4 -11 -10 -13
-10 -7 0 7 11 -5 17 -27 13 -5 -1 -6 3 -2 9 3 6 11 8 16 5 5 -3 6 1 3 10 -6
15 -8 15 -23 0 -15 -15 -14 -17 4 -31 19 -15 18 -15 -15 -11 -19 2 -34 9 -33
15 2 6 -4 9 -12 6 -8 -4 -13 -9 -10 -13 2 -4 -25 -7 -61 -7 -63 1 -86 -6 -64
-19 5 -3 10 -11 10 -17 0 -6 -3 -8 -7 -5 -3 4 -13 1 -22 -6 -14 -11 -14 -10
-2 6 16 20 9 34 -7 14 -12 -14 -82 -11 -82 3 0 4 16 4 35 0 27 -6 37 -4 50 10
15 16 13 17 -32 14 -34 -3 -43 -1 -33 6 8 5 13 10 10 11 -3 0 -13 2 -22 4 -10
2 -15 -2 -12 -10 4 -9 -9 -12 -50 -10 -31 1 -59 5 -63 8 -3 4 -13 1 -21 -6
-12 -9 -16 -9 -19 1 -3 6 -10 9 -16 5 -15 -9 -47 -11 -47 -3 0 3 -18 5 -39 4
-42 -1 -71 10 -58 23 5 4 12 1 17 -7 6 -8 10 -13 11 -10 0 3 2 13 4 23 2 12
-2 17 -13 15 -19 -3 -42 -29 -36 -40 3 -4 -6 -4 -18 -1 -13 3 -33 5 -45 5 -13
0 -23 4 -23 9 0 5 -5 9 -11 9 -5 0 -8 -4 -5 -8 3 -5 -1 -9 -9 -9 -8 0 -12 4
-9 9 3 4 -2 8 -11 8 -9 0 -14 -4 -11 -8 2 -4 -4 -8 -14 -8 -10 0 -16 4 -14 8
3 4 -9 6 -25 4 -17 -2 -29 1 -28 7 1 5 -4 12 -12 15 -8 2 -11 0 -8 -5 3 -5 -5
-9 -19 -9 -13 0 -24 4 -24 9 0 4 -4 6 -9 3 -5 -3 -11 1 -15 9 -5 15 11 31 21
21 4 -3 0 -6 -8 -6 -11 0 -11 -2 1 -10 23 -15 29 -12 25 10 -3 14 0 18 8 13
22 -14 49 -14 41 -1 -6 10 -4 10 7 3 8 -6 26 -10 41 -9 21 1 25 -2 18 -11 -7
-8 -2 -12 20 -12 17 0 27 5 23 10 -3 6 -1 7 6 3 6 -4 9 -11 6 -16 -3 -5 4 -8
15 -7 11 1 20 5 20 11 0 5 8 2 18 -6 17 -16 47 -14 37 3 -4 5 2 6 12 2 15 -5
14 -1 -5 19 -15 17 -20 28 -13 33 6 3 11 11 11 17 0 6 -7 5 -17 -3 -12 -10
-17 -11 -20 -2 -2 7 -10 11 -16 9 -7 -1 -9 -1 -4 1 4 3 4 9 1 14 -3 6 -12 5
-22 -3 -13 -11 -14 -11 -7 1 6 11 4 13 -8 8 -8 -3 -21 1 -27 8 -7 8 -16 13
-19 10 -4 -2 -8 2 -8 10 0 13 4 12 19 -2 16 -15 23 -11 19 10 -1 5 3 6 9 2 6
-3 7 -11 4 -17 -5 -8 -1 -9 12 -3 10 4 34 8 52 8 17 0 32 5 32 11 0 6 4 5 9
-3 6 -9 10 -10 16 -2 5 9 10 9 21 0 8 -6 14 -7 14 -2 0 5 20 9 44 9 24 -1 42
-4 40 -7 -2 -4 3 -10 12 -13 8 -3 12 -2 9 4 -8 13 4 32 16 24 5 -3 7 -15 3
-27z m864 -2 c3 -3 -4 -4 -16 -2 -12 2 -24 6 -28 10 -4 3 4 4 16 2 12 -2 25
-7 28 -10z m-1374 -100 c-4 -8 -11 -15 -16 -15 -6 0 -5 6 2 15 7 8 14 15 16
15 2 0 1 -7 -2 -15z m1431 -5 c-3 -5 -4 -10 -1 -10 2 0 12 -3 22 -7 11 -4 15
-3 10 5 -3 6 -1 14 5 18 8 4 9 3 5 -4 -10 -16 16 -15 33 1 11 10 12 9 6 -2 -6
-10 -4 -13 7 -9 8 4 15 1 15 -6 0 -8 -12 -12 -34 -10 -18 1 -31 -1 -29 -5 3
-4 -4 -7 -14 -7 -10 0 -16 4 -14 8 3 4 1 8 -4 8 -6 0 -13 -7 -16 -16 -5 -13
-9 -14 -21 -4 -8 7 -15 8 -15 3 0 -5 -7 -10 -15 -10 -8 0 -12 4 -9 9 3 4 0 8
-5 8 -6 0 -11 -5 -11 -10 0 -6 -11 -8 -25 -6 -13 3 -27 0 -30 -5 -4 -5 -12 -9
-18 -9 -7 0 -6 4 3 10 8 5 16 14 16 20 3 20 4 21 17 13 20 -13 39 -12 34 1 -3
7 4 12 19 12 17 0 21 -3 13 -12 -8 -10 -5 -12 10 -11 14 1 20 6 16 15 -2 7 -1
10 4 7 5 -3 12 -1 16 5 3 5 8 10 11 10 3 0 2 -4 -1 -10z m132 -30 c1 -11 -2
-20 -5 -20 -4 0 -8 9 -9 20 -1 11 2 20 5 20 4 0 8 -9 9 -20z m-1581 -8 c1 -7
0 -8 -3 -2 -2 5 -9 10 -14 10 -6 0 -8 -4 -5 -8 2 -4 -6 -8 -19 -8 -13 0 -21 4
-19 8 3 5 9 6 14 3 5 -3 12 -1 15 5 8 14 28 8 31 -8z m1289 7 c4 -5 -2 -6 -11
-2 -11 4 -15 3 -10 -5 3 -6 1 -14 -5 -18 -11 -6 -31 15 -24 26 6 10 44 9 50
-1z m-1240 -8 c3 -5 2 -12 -3 -15 -5 -3 -9 1 -9 9 0 17 3 19 12 6z m1591 -3
c4 -7 3 -10 -1 -5 -5 4 -18 -1 -29 -10 -21 -18 -21 -18 -2 5 22 26 23 26 32
10z m-1542 -10 c-3 -4 -11 -5 -19 -1 -21 7 -19 12 4 10 11 0 18 -5 15 -9z
m1447 -6 c-5 -10 -18 -25 -27 -33 -11 -9 -9 -2 6 19 26 35 36 42 21 14z
m-1381 -5 c0 -4 4 -5 10 -2 6 3 7 -1 4 -9 -5 -14 -8 -14 -21 0 -9 9 -24 13
-35 11 -10 -3 -16 -1 -13 4 7 11 55 8 55 -4z m1310 3 c0 -5 -8 -10 -17 -10
-15 0 -16 2 -3 10 19 12 20 12 20 0z m30 1 c0 -6 -4 -12 -8 -15 -5 -3 -9 1 -9
9 0 8 4 15 9 15 4 0 8 -4 8 -9z m-1556 -22 c-10 -12 -18 -24 -17 -28 1 -3 0
-8 -2 -9 -2 -2 -3 3 -1 11 2 16 25 47 34 47 3 0 -3 -9 -14 -21z m137 4 c13
-16 12 -17 -3 -4 -17 13 -22 21 -14 21 2 0 10 -8 17 -17z m149 -8 c14 -18 13
-19 -1 -8 -9 7 -19 10 -23 6 -4 -4 -4 1 0 10 3 10 7 17 8 15 1 -2 8 -12 16
-23z m33 10 c-3 -9 -8 -14 -10 -11 -3 3 -2 9 2 15 9 16 15 13 8 -4z m44 -1 c0
-7 -6 -10 -14 -7 -7 3 -13 8 -13 12 0 4 6 8 13 8 8 0 14 -6 14 -13z m1038 6
c-3 -5 -13 -10 -21 -10 -10 0 -12 -5 -8 -12 6 -10 4 -10 -7 -2 -18 15 -51 14
-45 -1 2 -6 -2 -12 -9 -12 -10 0 -11 5 -5 17 5 10 19 17 32 16 13 -1 32 1 43
5 27 10 27 10 20 -1z m54 -7 c0 -10 -3 -13 -5 -6 -3 7 -13 9 -22 6 -15 -4 -15
-3 -2 6 22 15 30 14 29 -6z m28 -5 c-3 -8 -6 -5 -6 6 -1 11 2 17 5 13 3 -3 4
-12 1 -19z m210 7 c0 -8 -3 -13 -5 -10 -3 3 -12 -1 -21 -7 -10 -8 -9 -4 3 10
23 26 23 26 23 7z m-1507 1 c0 -2 -8 -10 -17 -17 -16 -13 -17 -12 -4 4 13 16
21 21 21 13z m238 -9 c6 -5 12 -14 12 -19 0 -5 -7 -3 -15 6 -9 8 -22 13 -30
10 -8 -4 -15 -2 -15 3 0 13 32 13 48 0z m72 6 c0 -1 -9 -7 -19 -12 -14 -8 -22
-7 -29 2 -9 10 -4 13 19 12 16 0 29 -1 29 -2z m800 -4 c0 -9 -31 -21 -38 -14
-3 3 0 5 7 5 7 0 10 4 7 8 -3 5 1 9 9 9 8 0 15 -4 15 -8z m-737 -9 c-7 -7 -63
-7 -58 0 2 3 17 6 34 5 16 0 27 -2 24 -5z m164 -6 c0 -11 -32 -12 -43 -1 -4 4
-13 2 -21 -4 -9 -9 -13 -8 -13 0 0 13 -22 10 -32 -4 -5 -6 -8 -4 -8 5 0 12 -2
12 -9 2 -7 -11 -9 -11 -13 0 -4 10 10 13 67 13 44 0 72 -4 72 -11z m168 6 c-3
-5 -12 -10 -18 -10 -7 0 -6 4 3 10 19 12 23 12 15 0z m71 1 c-8 -12 15 -29 35
-26 9 2 16 -3 16 -11 0 -8 -4 -10 -11 -5 -6 5 -19 7 -28 6 -10 -2 -16 2 -15 8
2 13 -33 16 -50 3 -8 -5 -13 -4 -13 2 0 12 28 24 40 17 5 -3 11 -1 15 5 3 5 8
10 11 10 3 0 3 -4 0 -9z m78 -10 c3 -4 -11 -5 -30 -3 -19 2 -34 7 -34 11 0 9
59 1 64 -8z m49 -21 c3 -11 1 -18 -4 -14 -5 3 -9 12 -9 20 0 8 -4 13 -9 10 -5
-3 -12 1 -15 9 -4 12 -2 13 13 6 10 -6 21 -20 24 -31z m73 22 c1 -7 0 -8 -3
-2 -2 5 -9 10 -14 10 -6 0 -7 -6 -3 -12 5 -10 4 -10 -6 -1 -7 6 -18 9 -25 7
-7 -3 -15 -2 -18 3 -3 5 11 8 31 8 20 0 36 -5 38 -13z m-1226 -2 c0 -5 -5 -10
-11 -10 -5 0 -7 5 -4 10 3 6 8 10 11 10 2 0 4 -4 4 -10z m105 1 c-9 -8 -36
-10 -30 -2 2 4 11 8 20 8 8 0 13 -3 10 -6z m81 -3 c3 -4 -1 -5 -10 -4 -8 1
-18 5 -22 8 -3 4 1 5 10 4 8 -1 18 -5 22 -8z m228 4 c3 -5 -1 -9 -9 -9 -8 0
-12 4 -9 9 3 4 7 8 9 8 2 0 6 -4 9 -8z m1287 -5 c-6 -8 -8 -16 -5 -20 3 -3 -1
-4 -10 -3 -8 1 -19 6 -23 11 -4 4 -3 5 3 2 7 -4 17 0 24 8 7 8 15 15 17 15 3
0 0 -6 -6 -13z m-1368 -10 c4 3 7 1 7 -5 0 -17 -16 -15 -31 6 -12 15 -12 16 2
5 9 -7 19 -10 22 -6z m127 10 c0 -2 -10 -12 -22 -23 l-23 -19 19 23 c18 21 26
27 26 19z m101 -14 c13 -16 12 -17 -3 -4 -10 7 -18 15 -18 17 0 8 8 3 21 -13z
m66 -1 c-10 -10 -15 -21 -12 -24 3 -3 -5 -13 -17 -24 -23 -19 -23 -19 -7 1 9
11 15 28 14 38 -2 9 1 15 5 12 5 -3 11 -1 15 5 3 5 9 10 12 10 3 0 -1 -8 -10
-18z m706 5 c4 3 7 1 7 -5 0 -17 -16 -15 -31 6 -12 15 -12 16 2 5 9 -7 19 -10
22 -6z m225 -12 c-3 -3 -9 2 -12 12 -6 14 -5 15 5 6 7 -7 10 -15 7 -18z m202
21 c0 -2 -6 -9 -14 -15 -11 -9 -16 -9 -22 0 -4 7 -3 9 4 5 6 -3 13 -2 17 4 6
10 15 14 15 6z m-1621 -9 c-2 -1 -13 -9 -24 -17 -19 -14 -19 -14 -6 3 7 9 18
17 24 17 6 0 8 -1 6 -3z m401 -22 c14 -19 14 -19 -2 -6 -10 7 -18 18 -18 24 0
6 1 8 3 6 1 -2 9 -13 17 -24z m157 5 c-1 -12 -10 -29 -22 -38 l-20 -17 20 24
c11 13 19 25 18 27 -5 7 -3 24 1 24 3 0 4 -9 3 -20z m558 -10 c2 -12 1 -20 -2
-16 -4 4 -8 16 -10 28 -4 28 6 18 12 -12z m390 21 c-3 -2 -16 -6 -28 -8 -15
-2 -18 0 -9 5 14 9 45 12 37 3z m-424 -18 c13 -16 12 -17 -3 -4 -10 7 -18 15
-18 17 0 8 8 3 21 -13z m-1085 -11 c-9 -11 -28 -18 -44 -17 -15 1 -36 -5 -47
-14 -20 -16 -20 -16 -2 5 12 15 27 21 47 19 16 -1 35 4 41 11 6 8 14 14 17 14
3 0 -2 -8 -12 -18z m449 8 c-3 -5 -12 -10 -18 -10 -7 0 -6 4 3 10 19 12 23 12
15 0z m80 1 c-9 -8 -36 -10 -30 -2 2 4 11 8 20 8 8 0 13 -3 10 -6z m75 5 c0
-2 -7 -7 -16 -10 -8 -3 -12 -2 -9 4 6 10 25 14 25 6z m35 -4 c-3 -3 0 -11 6
-19 17 -20 5 -16 -14 5 -15 16 -15 19 -2 19 8 0 13 -3 10 -5z m51 -4 c3 -4 -1
-5 -10 -4 -8 1 -18 5 -22 8 -3 4 1 5 10 4 8 -1 18 -5 22 -8z m471 -5 c0 -9 -4
-10 -14 -2 -7 6 -13 12 -13 14 0 1 6 2 13 2 8 0 14 -6 14 -14z m569 4 c4 -3
-4 -4 -16 -2 -30 6 -40 16 -12 12 12 -2 24 -6 28 -10z m-1646 0 c0 -2 -8 -11
-18 -20 -15 -14 -19 -15 -19 -2 0 8 4 12 8 9 4 -2 10 0 14 6 6 10 15 14 15 7z
m306 -19 c12 -14 13 -18 3 -10 -9 6 -18 10 -21 7 -2 -3 -5 2 -5 10 0 19 0 19
23 -7z m346 7 c2 3 5 -2 5 -10 0 -19 0 -19 -23 7 -12 14 -13 18 -3 10 9 -6 18
-10 21 -7z m68 12 c0 -2 -8 -11 -18 -20 -15 -14 -19 -15 -19 -2 0 8 4 12 8 9
4 -2 10 0 14 6 6 10 15 14 15 7z m75 -55 c-1 -15 5 -36 14 -47 16 -20 16 -20
-5 -2 -13 11 -20 27 -19 45 1 15 -5 36 -14 47 -16 20 -16 20 5 2 13 -11 20
-27 19 -45z m121 46 c5 4 6 3 2 -2 -4 -5 -3 -14 2 -21 7 -8 5 -12 -5 -12 -8 0
-13 3 -10 5 3 3 -3 15 -12 26 -14 15 -14 18 -2 8 9 -6 20 -8 25 -4z m65 -5
c13 -16 12 -17 -3 -4 -10 7 -18 15 -18 17 0 8 8 3 21 -13z m-741 -18 c14 -19
14 -19 -2 -6 -10 7 -18 18 -18 24 0 6 1 8 3 6 1 -2 9 -13 17 -24z m291 8 c13
-16 12 -17 -3 -4 -10 7 -18 15 -18 17 0 8 8 3 21 -13z m342 -1 c15 -16 15 -19
2 -19 -8 0 -13 3 -10 5 3 3 0 11 -6 19 -17 20 -5 16 14 -5z m80 0 c15 -16 15
-19 2 -19 -8 0 -13 3 -10 5 3 3 0 11 -6 19 -17 20 -5 16 14 -5z m-958 -22
c-10 -11 -20 -18 -23 -15 -3 3 -10 0 -17 -5 -8 -7 -12 -5 -12 4 0 8 8 13 18
11 10 -2 23 3 30 11 6 8 14 14 17 14 3 0 -3 -9 -13 -20z m85 8 c0 -4 -4 -8 -9
-8 -6 0 -12 4 -15 8 -3 5 1 9 9 9 8 0 15 -4 15 -9z m572 -13 c2 3 5 -2 5 -10
0 -10 -4 -12 -12 -5 -7 5 -16 6 -21 2 -5 -4 -6 -3 -2 2 4 5 2 16 -4 25 -10 12
-7 12 8 -2 11 -9 23 -15 26 -12z m78 21 c0 -2 -8 -10 -17 -17 -16 -13 -17 -12
-4 4 13 16 21 21 21 13z m116 -8 c3 -4 -1 -5 -10 -4 -8 1 -18 5 -22 8 -3 4 1
5 10 4 8 -1 18 -5 22 -8z m-1071 -8 c-3 -5 -12 -10 -18 -10 -7 0 -6 4 3 10 19
12 23 12 15 0z m115 -5 c-7 -8 -17 -15 -23 -15 -6 0 -2 7 9 15 25 19 30 19 14
0z m328 -10 c-3 -3 -9 2 -12 12 -6 14 -5 15 5 6 7 -7 10 -15 7 -18z m378 13
c5 4 6 3 2 -2 -4 -5 -2 -16 4 -25 10 -12 7 -12 -8 2 -11 9 -23 15 -26 12 -2
-3 -5 2 -5 10 0 10 4 12 12 5 7 -5 16 -6 21 -2z m399 3 c3 -5 2 -12 -3 -15 -5
-3 -9 1 -9 9 0 17 3 19 12 6z m-458 -18 c0 -8 -5 -9 -11 -4 -6 4 -51 7 -99 6
-48 -1 -83 1 -78 4 5 3 49 6 98 6 66 1 90 -3 90 -12z m-725 -28 c3 3 13 -5 24
-17 19 -23 19 -23 -2 -5 -11 9 -23 15 -26 12 -3 -3 -13 5 -24 17 -19 23 -19
23 2 5 11 -9 23 -15 26 -12z m478 21 c0 -2 -8 -10 -17 -17 -16 -13 -17 -12 -4
4 13 16 21 21 21 13z m442 -20 c3 3 8 1 12 -4 11 -18 -25 -8 -41 12 -18 21
-18 21 3 3 11 -9 23 -14 26 -11z m108 10 c-7 -7 -13 -7 -20 0 -6 6 -3 10 10
10 13 0 16 -4 10 -10z m50 9 c0 -1 -10 -10 -22 -21 -14 -12 -18 -13 -10 -3 6
9 10 18 7 21 -3 2 2 5 10 5 8 0 15 -1 15 -2z m755 -5 c3 -6 -1 -7 -9 -4 -18 7
-21 14 -7 14 6 0 13 -4 16 -10z m-1304 -17 c13 -16 12 -17 -3 -4 -17 13 -22
21 -14 21 2 0 10 -8 17 -17z m66 -1 c-10 -10 -15 -21 -12 -24 3 -3 -5 -13 -17
-24 l-23 -19 19 23 c11 12 15 22 11 22 -4 0 0 9 10 20 10 11 20 20 23 20 3 0
-2 -8 -11 -18z m77 -3 c-10 -12 -18 -24 -17 -28 1 -3 0 -8 -2 -9 -2 -2 -3 3
-1 11 2 16 25 47 34 47 3 0 -3 -9 -14 -21z m113 -24 c0 -8 -4 -12 -9 -9 -5 4
-7 9 -4 12 3 3 -2 15 -11 26 -18 21 -18 21 3 3 11 -9 21 -24 21 -32z m55 30
c2 3 5 -2 5 -10 0 -19 0 -19 -23 7 -12 14 -13 18 -3 10 9 -6 18 -10 21 -7z
m289 -2 c13 -16 12 -17 -3 -4 -10 7 -18 15 -18 17 0 8 8 3 21 -13z m-1170 -10
c13 -16 12 -17 -3 -4 -17 13 -22 21 -14 21 2 0 10 -8 17 -17z m782 -1 c15 -16
15 -19 2 -19 -8 0 -13 3 -10 5 3 3 0 11 -6 19 -17 20 -5 16 14 -5z m357 14 c0
-2 -8 -10 -17 -17 -16 -13 -17 -12 -4 4 13 16 21 21 21 13z m-1035 -15 c3 -5
2 -12 -3 -15 -5 -3 -9 1 -9 9 0 17 3 19 12 6z m490 -11 c-3 -5 -12 -10 -18
-10 -7 0 -6 4 3 10 19 12 23 12 15 0z m80 1 c-9 -8 -36 -10 -30 -2 2 4 11 8
20 8 8 0 13 -3 10 -6z m79 1 c2 -4 -4 -8 -14 -8 -10 0 -16 4 -14 8 3 4 9 8 14
8 5 0 11 -4 14 -8z m128 -17 c2 3 5 -2 5 -10 0 -10 -4 -12 -12 -5 -7 5 -16 6
-21 2 -5 -4 -6 -3 -2 2 4 5 2 16 -4 25 -10 12 -7 12 8 -2 11 -9 23 -15 26 -12z
m-832 -6 c0 -5 -4 -9 -8 -9 -5 0 -9 7 -9 15 0 8 4 12 9 9 4 -3 8 -9 8 -15z
m916 -5 c1 -9 0 -13 -4 -10 -3 4 -7 14 -8 22 -1 9 0 13 4 10 3 -4 7 -14 8 -22z
m115 12 c-11 -13 -84 -17 -96 -4 -3 3 15 4 40 3 25 -2 48 1 51 6 3 5 8 9 11 9
3 0 0 -6 -6 -14z m-1065 -8 c3 -4 -1 -5 -10 -4 -8 1 -18 5 -22 8 -3 4 1 5 10
4 8 -1 18 -5 22 -8z m1120 5 c-2 -3 -6 -3 -9 -1 -3 2 -15 -6 -28 -17 l-24 -20
18 21 c9 11 24 21 32 21 8 0 13 -2 11 -4z m760 -6 c4 -3 -4 -4 -16 -2 -30 6
-40 16 -12 12 12 -2 24 -6 28 -10z m-1231 -31 c0 -19 -3 -37 -6 -40 -4 -5 -4
62 0 72 4 10 7 -4 6 -32z m-25 20 c0 -2 -8 -10 -17 -17 -16 -13 -17 -12 -4 4
13 16 21 21 21 13z m196 -8 c3 -4 -1 -5 -10 -4 -8 1 -18 5 -22 8 -3 4 1 5 10
4 8 -1 18 -5 22 -8z m126 -13 c3 3 13 -5 24 -17 19 -23 19 -23 -2 -5 -11 9
-23 15 -26 12 -3 -3 -13 5 -24 17 -19 23 -19 23 2 5 11 -9 23 -15 26 -12z
m-80 0 c2 3 5 -2 5 -10 0 -19 0 -19 -23 7 -12 14 -13 18 -3 10 9 -6 18 -10 21
-7z m143 -23 c-3 -3 3 -15 12 -26 14 -15 14 -18 2 -8 -9 6 -18 9 -22 6 -3 -3
-4 2 -2 13 1 10 -5 27 -14 38 -16 20 -16 20 7 1 12 -11 20 -21 17 -24z m866
21 c13 -16 12 -17 -3 -4 -17 13 -22 21 -14 21 2 0 10 -8 17 -17z m-1155 0 c-2
-3 -6 -3 -9 -1 -3 2 -15 -6 -28 -17 l-24 -20 18 21 c9 11 24 21 32 21 8 0 13
-2 11 -4z m-750 -21 c-3 -3 -1 -10 4 -17 7 -8 6 -12 -3 -12 -7 0 -13 11 -13
23 0 12 4 20 9 17 4 -3 6 -8 3 -11z m875 -9 c13 -16 12 -17 -3 -4 -17 13 -22
21 -14 21 2 0 10 -8 17 -17z m103 -23 c-6 -6 -10 -3 -10 10 0 13 4 16 10 10 7
-7 7 -13 0 -20z m-178 8 c4 -7 4 -10 -1 -6 -4 4 -15 2 -24 -5 -14 -11 -14 -10
-2 6 16 20 18 21 27 5z m30 -16 c-17 -16 -18 -16 -5 5 7 12 15 20 18 17 3 -2
-3 -12 -13 -22z m65 5 c-10 -9 -11 -8 -5 6 3 10 9 15 12 12 3 -3 0 -11 -7 -18z
m113 -3 c3 -8 2 -12 -4 -9 -6 3 -10 10 -10 16 0 14 7 11 14 -7z m-286 -14 c-7
-10 -14 -17 -17 -15 -4 4 18 35 25 35 2 0 -1 -9 -8 -20z m82 7 c0 -2 -8 -11
-18 -20 -15 -14 -19 -15 -19 -2 0 8 4 12 8 9 4 -2 10 0 14 6 6 10 15 14 15 7z
m44 -18 c-10 -12 -18 -24 -17 -28 1 -3 0 -8 -2 -9 -2 -2 -3 3 -1 11 2 16 25
47 34 47 3 0 -3 -9 -14 -21z m83 3 c-10 -10 -15 -21 -12 -24 3 -2 -2 -5 -10
-5 -10 0 -12 4 -5 12 5 7 6 16 2 20 -4 5 -2 5 5 1 6 -3 14 -2 18 4 3 5 9 10
12 10 3 0 -1 -8 -10 -18z m125 3 c2 3 5 -2 5 -10 0 -19 0 -19 -23 7 -12 14
-13 18 -3 10 9 -6 18 -10 21 -7z m-171 -8 c-6 -8 -9 -16 -6 -19 3 -2 -2 -5
-10 -5 -13 0 -13 3 2 19 19 21 31 25 14 5z m80 0 c-6 -8 -9 -16 -6 -19 3 -2
-2 -5 -10 -5 -13 0 -13 3 2 19 19 21 31 25 14 5z m964 3 c3 -6 -1 -7 -9 -4
-18 7 -21 14 -7 14 6 0 13 -4 16 -10z m-1124 -23 c-6 -8 -9 -17 -6 -20 3 -4 2
-5 -2 -2 -3 3 -11 0 -18 -5 -8 -7 -12 -5 -12 5 0 8 4 12 8 10 3 -3 12 2 19 10
7 8 15 15 17 15 3 0 0 -6 -6 -13z m204 4 c-9 -8 -36 -10 -30 -2 2 4 11 8 20 8
8 0 13 -3 10 -6z m912 -31 c-1 -23 -12 -16 -12 8 0 9 -6 16 -13 14 -8 -1 -11
2 -7 8 10 16 34 -7 32 -30z m-865 9 c2 -2 1 -3 -1 -1 -2 1 -14 -6 -25 -15 -15
-14 -18 -14 -8 -2 6 9 9 18 6 22 -3 3 1 4 10 3 8 -1 17 -4 18 -7z m-56 -14
c-1 -8 -5 -17 -8 -21 -5 -4 -4 16 1 34 3 9 9 -1 7 -13z m-151 -4 c-9 -8 -36
-10 -30 -2 2 4 11 8 20 8 8 0 13 -3 10 -6z m45 4 c0 -2 -6 -8 -13 -14 -10 -8
-14 -7 -14 2 0 8 6 14 14 14 7 0 13 -1 13 -2z m40 0 c0 -2 -6 -8 -13 -14 -10
-8 -14 -7 -14 2 0 8 6 14 14 14 7 0 13 -1 13 -2z m40 0 c0 -2 -6 -8 -13 -14
-10 -8 -14 -7 -14 2 0 8 6 14 14 14 7 0 13 -1 13 -2z m-5 -2084 c-9 -8 -36
-10 -30 -2 2 4 11 8 20 8 8 0 13 -3 10 -6z m30 -20 c3 -5 2 -12 -3 -15 -5 -3
-9 1 -9 9 0 17 3 19 12 6z m-25 -17 c0 -8 -19 -13 -24 -6 -3 5 1 9 9 9 8 0 15
-2 15 -3z m-55 -983 c3 -5 2 -12 -3 -15 -5 -3 -9 1 -9 9 0 17 3 19 12 6z m76
-333 c-11 -11 -13 -10 -7 0 4 7 2 21 -5 30 -12 15 -11 15 6 0 16 -15 17 -20 6
-30z m-21 -4 c0 -8 -19 -13 -24 -6 -3 5 1 9 9 9 8 0 15 -2 15 -3z m19 -168 c9
-11 9 -16 -1 -22 -7 -4 -10 -4 -6 1 4 4 3 14 -3 22 -6 7 -9 13 -6 13 2 0 10
-6 16 -14z m-11 -61 c-3 -3 -9 2 -12 12 -6 14 -5 15 5 6 7 -7 10 -15 7 -18z
m-1 -30 c0 -8 -3 -13 -5 -10 -3 3 -12 -1 -21 -7 -10 -8 -9 -4 3 10 23 26 23
26 23 7z m-57 -85 c0 -5 -2 -10 -4 -10 -3 0 -8 5 -11 10 -3 6 -1 10 4 10 6 0
11 -4 11 -10z m75 -9 c3 -5 2 -12 -3 -15 -5 -3 -9 1 -9 9 0 17 3 19 12 6z m5
-47 c0 -8 -19 -13 -24 -6 -3 5 1 9 9 9 8 0 15 -2 15 -3z m-29 -31 c13 -16 12
-17 -3 -4 -17 13 -22 21 -14 21 2 0 10 -8 17 -17z m18 -57 c9 -11 9 -16 -1
-22 -7 -4 -10 -4 -6 1 4 4 3 14 -3 22 -6 7 -9 13 -6 13 2 0 10 -6 16 -14z
m-11 -61 c-3 -3 -9 2 -12 12 -6 14 -5 15 5 6 7 -7 10 -15 7 -18z m-1 -30 c0
-8 -3 -13 -5 -10 -3 3 -12 -1 -21 -7 -10 -8 -9 -4 3 10 23 26 23 26 23 7z m23
-61 c0 -8 -19 -13 -24 -6 -3 5 1 9 9 9 8 0 15 -2 15 -3z m-44 -29 c-1 -8 -5
-17 -8 -21 -5 -4 -4 16 1 34 3 9 9 -1 7 -13z m60 -30 c-1 -8 -5 -17 -8 -21 -5
-4 -4 16 1 34 3 9 9 -1 7 -13z m-100 -7 c4 -7 4 -10 -1 -6 -4 4 -15 2 -24 -5
-14 -11 -14 -10 -2 6 16 20 18 21 27 5z m68 4 c3 -5 -1 -9 -9 -9 -8 0 -12 4
-9 9 3 4 7 8 9 8 2 0 6 -4 9 -8z m-127 -37 c0 -8 -4 -15 -9 -15 -10 0 -11 14
-1 23 9 10 10 9 10 -8z m222 2 c8 -10 7 -14 -2 -14 -8 0 -14 6 -14 14 0 7 1
13 2 13 2 0 8 -6 14 -13z m-39 -22 c14 -19 14 -19 -2 -6 -10 7 -18 18 -18 24
0 6 1 8 3 6 1 -2 9 -13 17 -24z m-108 -17 c-14 -14 -44 -20 -36 -7 3 5 9 7 14
4 5 -3 11 -1 15 5 3 5 9 10 13 10 3 0 1 -5 -6 -12z m99 -15 c19 -22 20 -24 3
-10 -17 14 -23 15 -27 5 -3 -7 -4 -3 -4 10 1 12 2 22 2 22 1 0 12 -12 26 -27z
m81 12 c3 3 11 -3 19 -12 12 -16 12 -17 -2 -6 -9 7 -18 11 -21 8 -3 -3 -11 3
-19 12 -12 16 -12 17 2 6 9 -7 18 -11 21 -8z m-166 -23 c-17 -16 -18 -16 -5 5
7 12 15 20 18 17 3 -2 -3 -12 -13 -22z m133 5 c8 -10 7 -14 -2 -14 -8 0 -14 6
-14 14 0 7 1 13 2 13 2 0 8 -6 14 -13z m-102 -22 c0 -8 -3 -13 -5 -10 -3 3
-12 -1 -21 -7 -10 -8 -9 -4 3 10 23 26 23 26 23 7z m155 0 c2 3 5 -2 5 -10 0
-19 0 -19 -23 7 -12 14 -13 18 -3 10 9 -6 18 -10 21 -7z m54 -7 c12 -14 13
-18 3 -10 -9 6 -18 10 -21 7 -2 -3 -5 2 -5 10 0 19 0 19 23 -7z m-156 7 c0 -2
-6 -8 -13 -14 -10 -8 -14 -7 -14 2 0 8 6 14 14 14 7 0 13 -1 13 -2z m-486 -23
c3 -5 -1 -9 -9 -9 -8 0 -12 4 -9 9 3 4 7 8 9 8 2 0 6 -4 9 -8z m381 -1 c-9 -8
-36 -10 -30 -2 2 4 11 8 20 8 8 0 13 -3 10 -6z m112 -9 c-17 -18 -51 -27 -41
-10 3 5 9 6 14 3 4 -3 13 2 20 10 7 8 15 15 18 15 3 0 -2 -8 -11 -18z m95 -6
c3 3 8 1 12 -4 11 -18 -25 -8 -41 12 -18 21 -18 21 3 3 11 -9 23 -14 26 -11z
m103 6 c-3 -3 -11 0 -18 7 -9 10 -8 11 6 5 10 -3 15 -9 12 -12z m-385 -7 c-14
-17 -30 -20 -30 -4 0 5 4 8 9 4 5 -3 12 -1 16 5 3 5 9 10 12 10 3 0 0 -7 -7
-15z m126 0 c-1 -8 -5 -17 -8 -21 -5 -4 -4 16 1 34 3 9 9 -1 7 -13z m200 -11
c1 -9 0 -13 -4 -10 -3 4 -7 14 -8 22 -1 9 0 13 4 10 3 -4 7 -14 8 -22z m-85
-1 c13 -16 12 -17 -3 -4 -15 11 -21 11 -35 0 -16 -13 -17 -12 -4 4 7 9 17 17
21 17 4 0 14 -8 21 -17z m179 13 c0 -2 -8 -10 -17 -17 -16 -13 -17 -12 -4 4
13 16 21 21 21 13z m-466 -24 c3 -5 -1 -9 -9 -9 -8 0 -12 4 -9 9 3 4 7 8 9 8
2 0 6 -4 9 -8z m473 -10 c-21 -23 -52 -25 -69 -4 -11 15 -11 15 2 5 18 -14 45
-12 62 5 19 19 23 14 5 -6z m39 -16 c-2 -38 -12 -39 -12 -1 0 18 3 32 7 30 3
-3 5 -15 5 -29z m-385 10 c-7 -8 -20 -13 -29 -11 -9 1 -26 -5 -37 -14 -20 -16
-20 -16 -2 6 11 12 27 20 38 18 10 -2 21 0 24 6 4 5 9 9 12 9 3 0 0 -6 -6 -14z
m76 -4 c-10 -10 -15 -21 -12 -24 3 -2 -2 -5 -10 -5 -10 0 -12 4 -5 12 5 7 6
16 2 20 -4 5 -2 5 5 1 6 -3 14 -2 18 4 3 5 9 10 12 10 3 0 -1 -8 -10 -18z
m149 6 c5 4 6 3 2 -2 -4 -5 -3 -14 2 -21 7 -8 5 -12 -5 -12 -8 0 -13 3 -10 5
3 3 -3 15 -12 26 -14 15 -14 18 -2 8 9 -6 20 -8 25 -4z m-195 -11 c-6 -8 -9
-16 -6 -19 3 -2 -2 -5 -10 -5 -13 0 -13 3 2 19 19 21 31 25 14 5z m80 0 c-6
-8 -9 -16 -6 -19 3 -2 -2 -5 -10 -5 -13 0 -13 3 2 19 19 21 31 25 14 5z m72
-5 c15 -16 15 -19 2 -19 -8 0 -13 3 -10 5 3 3 0 11 -6 19 -17 20 -5 16 14 -5z
m80 0 c15 -16 15 -19 2 -19 -8 0 -13 3 -10 5 3 3 0 11 -6 19 -17 20 -5 16 14
-5z m183 6 c4 -7 3 -10 -1 -5 -5 4 -18 -1 -29 -10 -21 -18 -21 -18 -2 5 22 26
23 26 32 10z m-575 -15 c13 -16 12 -17 -3 -4 -17 13 -22 21 -14 21 2 0 10 -8
17 -17z m-501 -3 c0 -5 -5 -10 -11 -10 -5 0 -7 5 -4 10 3 6 8 10 11 10 2 0 4
-4 4 -10z m180 0 c0 -5 -5 -10 -11 -10 -5 0 -7 5 -4 10 3 6 8 10 11 10 2 0 4
-4 4 -10z m198 -2 c-2 -7 2 -12 8 -11 6 1 11 -5 11 -12 0 -10 -4 -12 -12 -5
-7 5 -14 7 -18 4 -4 -5 -3 16 2 34 3 9 11 0 9 -10z m406 4 c2 -4 -4 -8 -14 -8
-10 0 -16 4 -14 8 3 4 9 8 14 8 5 0 11 -4 14 -8z m-303 -19 c13 -16 12 -17 -3
-4 -10 7 -18 15 -18 17 0 8 8 3 21 -13z m115 2 c-1 -8 -5 -17 -8 -21 -5 -4 -4
16 1 34 3 9 9 -1 7 -13z m801 -10 c0 -8 -4 -12 -9 -9 -5 3 -6 10 -3 15 9 13
12 11 12 -6z m-936 -12 c13 -16 12 -17 -3 -4 -17 13 -22 21 -14 21 2 0 10 -8
17 -17z m516 2 c0 -8 -10 -23 -21 -32 -21 -18 -21 -18 -2 5 11 12 16 22 12 22
-4 0 -4 5 -1 10 9 14 12 13 12 -5z m118 -40 c0 -30 -2 -55 -6 -55 -5 0 -5 96
0 108 4 10 6 -6 6 -53z m366 38 c13 -16 12 -17 -3 -4 -17 13 -22 21 -14 21 2
0 10 -8 17 -17z m-1671 -18 c-7 -8 -16 -15 -21 -15 -5 0 -1 8 9 18 20 22 31
19 12 -3z m1040 20 c0 -1 -10 -10 -22 -21 -14 -12 -18 -13 -10 -3 6 9 10 18 7
21 -3 2 2 5 10 5 8 0 15 -1 15 -2z m30 -10 c-5 -7 -9 -14 -7 -16 1 -2 0 -3 -2
-2 -2 2 -11 -3 -20 -9 -12 -10 -12 -7 2 8 9 11 15 23 12 26 -3 2 2 5 10 5 10
0 12 -4 5 -12z m50 10 c0 -1 -10 -10 -22 -21 -14 -12 -18 -13 -10 -3 6 9 10
18 7 21 -3 2 2 5 10 5 8 0 15 -1 15 -2z m40 0 c0 -1 -12 -12 -27 -26 -20 -17
-23 -18 -10 -3 9 11 15 23 12 26 -3 2 2 5 10 5 8 0 15 -1 15 -2z m107 -13
c-17 -18 -51 -27 -41 -10 3 5 9 6 14 3 4 -3 13 2 20 10 7 8 15 15 18 15 3 0
-2 -8 -11 -18z m-1177 4 c0 -2 -8 -10 -17 -17 -16 -13 -17 -12 -4 4 13 16 21
21 21 13z m417 -11 c0 -8 -4 -12 -9 -9 -5 3 -6 10 -3 15 9 13 12 11 12 -6z
m158 -23 c-3 -3 3 -15 12 -26 18 -21 18 -21 -5 -2 -12 11 -20 21 -17 24 3 3
-3 15 -12 26 -18 21 -18 21 5 2 12 -11 20 -21 17 -24z m57 23 c2 3 5 -2 5 -10
0 -19 0 -19 -23 7 -12 14 -13 18 -3 10 9 -6 18 -10 21 -7z m145 -30 c0 -8 -4
-12 -9 -9 -5 4 -7 9 -4 12 3 3 -2 15 -11 26 -18 21 -18 21 3 3 11 -9 21 -24
21 -32z m78 7 c-3 -3 3 -15 12 -26 18 -21 18 -21 -5 -2 -12 11 -20 21 -17 24
3 3 -3 15 -12 26 -18 21 -18 21 5 2 12 -11 20 -21 17 -24z m704 25 c8 -10 7
-14 -2 -14 -8 0 -14 6 -14 14 0 7 1 13 2 13 2 0 8 -6 14 -13z m81 10 c0 -2
-10 -12 -22 -23 l-23 -19 19 23 c18 21 26 27 26 19z m-1689 -24 c13 -16 12
-17 -3 -4 -10 7 -18 15 -18 17 0 8 8 3 21 -13z m582 -1 c15 -16 15 -19 2 -19
-8 0 -13 3 -10 5 3 3 0 11 -6 19 -17 20 -5 16 14 -5z m193 11 c-2 -3 -6 -3 -9
-1 -3 2 -15 -6 -28 -17 l-24 -20 18 21 c9 11 24 21 32 21 8 0 13 -2 11 -4z
m571 1 c-3 -3 -12 -6 -20 -8 -8 -1 -23 -8 -33 -16 -18 -14 -18 -14 -2 6 9 11
27 20 39 21 12 1 19 0 16 -3z m-902 -14 c3 -6 -1 -7 -9 -4 -18 7 -21 14 -7 14
6 0 13 -4 16 -10z m65 6 c0 -2 -8 -10 -17 -17 -16 -13 -17 -12 -4 4 13 16 21
21 21 13z m-594 -18 c3 -4 -1 -5 -10 -4 -8 1 -18 5 -22 8 -3 4 1 5 10 4 8 -1
18 -5 22 -8z m154 8 c0 -2 -7 -7 -16 -10 -8 -3 -12 -2 -9 4 6 10 25 14 25 6z
m612 -20 c3 3 8 1 12 -4 11 -18 -25 -8 -41 12 -18 21 -18 21 3 3 11 -9 23 -14
26 -11z m194 12 c3 -4 -1 -5 -10 -4 -8 1 -18 5 -22 8 -3 4 1 5 10 4 8 -1 18
-5 22 -8z m-350 -13 c-1 -8 -5 -17 -8 -21 -5 -4 -4 16 1 34 3 9 9 -1 7 -13z
m244 11 c0 -2 -8 -10 -17 -17 -16 -13 -17 -12 -4 4 13 16 21 21 21 13z m200 0
c0 -2 -8 -10 -17 -17 -16 -13 -17 -12 -4 4 13 16 21 21 21 13z m76 -11 c-1 -8
-5 -17 -8 -21 -5 -4 -4 16 1 34 3 9 9 -1 7 -13z m160 0 c-1 -8 -5 -17 -8 -21
-5 -4 -4 16 1 34 3 9 9 -1 7 -13z m120 0 c-1 -8 -5 -17 -8 -21 -5 -4 -4 16 1
34 3 9 9 -1 7 -13z m-921 -4 c3 -5 2 -12 -3 -15 -5 -3 -9 1 -9 9 0 17 3 19 12
6z m611 2 c-2 -3 -6 -3 -9 -1 -3 2 -15 -6 -28 -17 l-24 -20 18 21 c9 11 24 21
32 21 8 0 13 -2 11 -4z m718 -1 c3 -5 -1 -9 -9 -9 -8 0 -12 4 -9 9 3 4 7 8 9
8 2 0 6 -4 9 -8z m-1268 -27 c-1 -13 -4 -27 -7 -30 -5 -4 -4 41 0 53 4 10 8
-2 7 -23z m400 -9 c-2 -38 -12 -39 -12 -1 0 18 3 32 7 30 3 -3 5 -15 5 -29z
m-518 5 c-7 -9 -13 -18 -15 -20 -1 -2 -1 5 0 16 0 11 7 20 14 20 10 0 10 -4 1
-16z m79 2 c-17 -17 -71 -27 -61 -12 2 4 13 6 24 4 10 -2 24 3 31 11 6 8 14
14 17 14 4 0 -1 -8 -11 -17z m124 4 c-6 -8 -8 -16 -5 -19 3 -3 1 -9 -4 -12 -6
-3 -9 0 -8 6 2 16 15 38 23 38 3 0 0 -6 -6 -13z m49 8 c0 -1 -10 -10 -22 -21
-14 -12 -18 -13 -10 -3 6 9 10 18 7 21 -3 2 2 5 10 5 8 0 15 -1 15 -2z m301
-12 c13 -16 12 -17 -3 -4 -17 13 -22 21 -14 21 2 0 10 -8 17 -17z m209 13 c0
-2 -7 -7 -16 -10 -8 -3 -12 -2 -9 4 6 10 25 14 25 6z m35 -4 c-3 -3 0 -11 6
-19 17 -20 5 -16 -14 5 -15 16 -15 19 -2 19 8 0 13 -3 10 -5z m-442 -16 c3 3
4 -1 3 -10 -1 -8 -5 -18 -9 -21 -4 -3 -5 -2 -2 2 3 3 -3 16 -12 27 -14 15 -14
18 -2 8 9 -6 18 -9 22 -6z m304 1 c0 -8 -6 -14 -14 -14 -9 0 -10 4 -2 14 6 7
12 13 14 13 1 0 2 -6 2 -13z m63 10 c0 -2 -8 -11 -18 -20 -15 -14 -19 -15 -19
-2 0 8 4 12 8 9 4 -2 10 0 14 6 6 10 15 14 15 7z m-441 -10 c-2 -1 -13 -9 -24
-17 -19 -14 -19 -14 -6 3 7 9 18 17 24 17 6 0 8 -1 6 -3z m31 -12 c7 -9 8 -15
2 -15 -5 0 -12 7 -16 15 -3 8 -4 15 -2 15 2 0 9 -7 16 -15z m79 1 c9 -11 9
-16 -1 -22 -7 -4 -10 -4 -6 1 4 4 3 14 -3 22 -6 7 -9 13 -6 13 2 0 10 -6 16
-14z m382 -3 c13 -16 12 -17 -3 -4 -17 13 -22 21 -14 21 2 0 10 -8 17 -17z
m74 7 c-3 -5 -12 -10 -18 -10 -7 0 -6 4 3 10 19 12 23 12 15 0z m-1125 -20 c0
-5 -2 -10 -4 -10 -3 0 -8 5 -11 10 -3 6 -1 10 4 10 6 0 11 -4 11 -10z m877 4
c-3 -3 -12 -4 -19 -1 -8 3 -5 6 6 6 11 1 17 -2 13 -5z m503 -8 c0 -2 -8 -10
-17 -17 -16 -13 -17 -12 -4 4 13 16 21 21 21 13z m-185 -25 c3 -5 2 -12 -3
-15 -5 -3 -9 1 -9 9 0 17 3 19 12 6z m-800 -10 c3 -5 2 -12 -3 -15 -5 -3 -9 1
-9 9 0 17 3 19 12 6z m700 0 c3 -5 2 -12 -3 -15 -5 -3 -9 1 -9 9 0 17 3 19 12
6z m-438 -16 c0 -8 -4 -12 -9 -9 -5 3 -6 10 -3 15 9 13 12 11 12 -6z m58 6 c3
-5 2 -12 -3 -15 -5 -3 -9 1 -9 9 0 17 3 19 12 6z m37 -5 c7 4 8 2 4 -5 -9 -13
-26 -5 -25 12 0 9 2 8 6 -1 2 -6 10 -9 15 -6z"/>
<path d="M2675 5518 c-8 -13 -15 -19 -15 -14 0 5 -6 3 -13 -3 -8 -6 -18 -7
-22 -3 -5 4 -5 1 -1 -6 4 -7 19 -11 34 -9 20 3 26 9 24 23 -2 15 -1 16 7 4 5
-8 8 -17 5 -21 -2 -4 3 -10 12 -13 9 -3 12 -2 9 5 -4 5 -2 15 4 22 7 9 5 16
-9 25 -16 10 -22 8 -35 -10z"/>
<path d="M2733 5525 c4 -8 2 -17 -4 -21 -5 -3 -7 -14 -4 -24 5 -14 1 -18 -15
-17 -11 1 -20 4 -20 7 0 4 -7 7 -15 7 -8 0 -12 -4 -9 -9 7 -11 -3 -10 -27 2
-13 8 -25 8 -37 0 -15 -10 -15 -10 3 -8 12 2 19 -2 18 -9 -2 -7 4 -13 13 -13
8 0 13 3 10 8 -2 4 12 7 32 6 22 -1 36 -6 35 -13 -2 -6 2 -11 7 -11 6 0 10 8
10 18 0 15 2 15 11 2 9 -13 10 -12 5 3 -3 9 -9 25 -12 35 -5 14 -4 15 5 2 9
-13 15 -8 13 11 -1 3 5 6 13 6 8 0 14 -3 13 -6 -2 -18 4 -21 17 -7 8 8 12 21
9 30 -5 13 -8 14 -20 1 -15 -15 -48 -10 -38 6 3 5 0 9 -6 9 -7 0 -10 -7 -7
-15z"/>
<path d="M2830 5525 c0 -19 -47 -58 -55 -46 -9 16 -28 2 -21 -15 6 -17 -3 -46
-13 -40 -11 7 -36 -12 -28 -21 5 -4 12 -1 16 6 7 10 10 9 16 -8 3 -12 11 -19
16 -15 6 3 5 12 -3 22 -7 9 -8 13 -2 9 7 -4 17 0 24 8 9 10 9 15 1 15 -6 0
-11 4 -11 9 0 10 60 37 73 33 5 -1 6 2 2 8 -4 6 1 7 12 4 16 -6 16 -5 -1 8
-13 10 -16 17 -7 22 6 4 13 1 16 -6 6 -16 46 -22 42 -6 -1 6 5 13 13 15 12 4
12 3 1 -5 -9 -7 -10 -12 -2 -16 6 -4 11 -2 11 4 0 6 4 9 9 5 5 -3 12 -1 16 5
4 6 11 8 16 5 5 -4 9 -2 9 3 0 4 -22 8 -50 8 -33 1 -47 -3 -43 -10 5 -8 2 -7
-8 0 -18 15 -49 14 -49 -1z"/>
<path d="M2990 5530 c0 -5 5 -10 10 -10 6 0 10 5 10 10 0 6 -4 10 -10 10 -5 0
-10 -4 -10 -10z"/>
<path d="M3026 5528 c5 -8 -2 -10 -41 -12 -11 -1 -27 -5 -35 -10 -8 -6 -26
-10 -40 -11 -14 -1 -35 -6 -46 -13 -12 -6 -24 -8 -28 -5 -3 3 -6 1 -6 -6 0 -7
-4 -10 -8 -7 -12 7 -38 -12 -28 -21 5 -4 11 -3 13 4 3 9 11 6 26 -7 11 -11 26
-20 31 -20 6 1 0 10 -13 20 -13 11 -19 20 -14 20 5 0 15 -6 22 -12 11 -11 13
-10 8 4 -3 10 -1 20 5 24 6 4 8 3 4 -4 -3 -6 -1 -14 5 -18 8 -4 7 -9 -2 -15
-8 -5 -9 -9 -4 -9 20 0 38 17 26 24 -20 13 -11 26 14 22 14 -3 23 -1 20 4 -3
5 4 7 16 5 15 -3 19 0 15 11 -4 12 -2 12 14 4 13 -7 21 -7 25 1 4 6 14 8 22 5
9 -4 12 -2 7 7 -4 7 -3 9 2 4 5 -5 9 -14 9 -19 0 -6 6 -13 14 -16 8 -3 11 0 7
6 -3 6 -2 14 4 17 6 4 9 3 8 -2 -2 -4 0 -9 5 -10 13 -5 12 2 -6 27 -9 13 -17
19 -17 12 0 -6 -5 -12 -11 -12 -5 0 -8 4 -5 8 3 5 -1 9 -9 9 -8 0 -12 -4 -9
-9z"/>
<path d="M3113 5530 c2 -8 12 -14 22 -12 10 2 14 -1 10 -7 -3 -6 -13 -11 -21
-11 -8 0 -14 -5 -14 -11 0 -6 7 -9 15 -5 8 3 18 -2 23 -11 8 -14 10 -13 15 1
4 10 3 14 -2 11 -5 -3 -13 0 -17 6 -5 8 -3 9 6 4 8 -5 11 -4 6 3 -3 6 -1 14 5
18 8 4 9 3 5 -4 -9 -15 6 -16 21 -1 8 8 16 8 31 -2 19 -14 22 -19 22 -41 0
-10 3 -9 9 1 6 9 11 10 15 2 4 -6 2 -11 -3 -11 -17 0 -13 -17 6 -24 26 -10 42
13 20 29 -14 10 -15 14 -5 19 10 5 10 7 0 12 -6 3 -9 11 -6 16 4 7 2 8 -5 4
-6 -4 -17 -3 -24 2 -7 5 -30 9 -52 8 -22 -1 -46 2 -52 7 -9 6 -13 5 -13 -4 0
-11 -3 -11 -11 1 -9 13 -10 13 -6 0z m157 -41 c0 -3 -7 -6 -15 -6 -8 0 -13 3
-10 5 3 3 -1 12 -8 20 -11 13 -9 14 11 1 12 -8 22 -16 22 -20z m20 -39 c0 -5
-2 -10 -4 -10 -3 0 -8 5 -11 10 -3 6 -1 10 4 10 6 0 11 -4 11 -10z"/>
<path d="M2475 5520 c-4 -6 -11 -8 -16 -5 -5 4 -9 1 -9 -6 0 -8 -4 -8 -12 -2
-15 12 -48 13 -48 3 0 -13 37 -40 44 -33 9 9 36 13 36 5 0 -3 -7 -13 -15 -22
-14 -15 -13 -19 6 -36 11 -10 28 -19 37 -19 10 0 16 -6 15 -12 -2 -7 3 -13 10
-13 8 0 7 -3 -3 -10 -11 -7 -7 -8 15 -6 17 1 40 -1 52 -5 16 -6 25 -4 31 7 8
14 10 14 16 -2 7 -18 8 -18 22 0 10 14 14 16 14 5 0 -12 2 -12 10 1 14 22 12
29 -7 26 -9 -2 -20 -11 -23 -22 -7 -18 -7 -18 -13 1 -9 28 -8 40 3 41 6 1 13
3 18 4 4 1 11 2 15 1 5 -1 5 4 1 10 -4 8 -3 9 5 5 6 -4 9 -11 6 -16 -3 -5 -1
-11 5 -15 5 -3 8 -16 4 -29 -5 -20 -2 -22 39 -22 32 1 43 4 40 13 -6 15 23 13
47 -2 18 -11 189 -14 196 -4 2 4 -1 11 -7 15 -8 5 -9 3 -4 -7 6 -11 5 -12 -6
-1 -7 6 -17 12 -22 12 -4 0 -5 -6 -1 -12 5 -8 0 -7 -11 2 -17 13 -18 13 -10 0
5 -9 5 -12 -1 -7 -5 5 -9 14 -9 19 0 6 -5 13 -12 15 -8 3 -11 -3 -8 -17 3 -17
1 -20 -9 -11 -8 7 -18 10 -22 9 -5 -2 -9 2 -9 7 0 6 6 9 15 8 9 -2 10 0 3 3
-7 3 -13 10 -13 16 0 7 5 6 14 -1 8 -7 17 -8 20 -3 7 11 -23 21 -42 15 -6 -3
-10 -9 -6 -14 9 -15 -12 -10 -26 5 -6 8 -19 12 -27 9 -12 -5 -14 -3 -8 8 8 11
5 11 -14 -1 -12 -8 -21 -18 -19 -21 2 -3 -3 -13 -10 -22 -15 -17 -46 -12 -35
7 4 6 1 6 -9 -2 -13 -10 -17 -10 -21 2 -3 8 -4 24 -2 34 2 15 -2 18 -19 17
-39 -5 -90 -35 -78 -47 16 -16 3 -41 -14 -27 -8 6 -14 8 -14 5 0 -4 -10 -2
-21 5 -15 8 -19 8 -15 0 4 -6 5 -11 2 -11 -3 0 -10 9 -16 21 -10 19 -10 20 9
10 13 -7 22 -8 26 -1 6 9 -8 14 -28 11 -5 -1 -5 4 -1 10 4 7 3 9 -4 6 -6 -5
-8 0 -5 13 3 12 0 20 -6 20 -7 0 -11 -7 -9 -16 2 -10 -3 -19 -11 -22 -10 -3
-11 2 -6 19 7 23 7 23 -12 6 -16 -14 -20 -14 -20 -2 0 8 5 11 11 8 6 -3 8 -3
4 2 -4 4 -3 15 4 22 9 11 9 16 -1 23 -8 5 -9 10 -3 14 6 3 13 0 15 -6 4 -9 6
-10 6 -1 1 16 -16 26 -24 13z m-41 -31 c-3 -5 -10 -7 -15 -3 -5 3 -7 10 -3 15
3 5 10 7 15 3 5 -3 7 -10 3 -15z m376 -73 c0 -3 -4 -8 -10 -11 -5 -3 -10 -1
-10 4 0 6 5 11 10 11 6 0 10 -2 10 -4z m45 -24 c-3 -3 1 -12 8 -21 11 -14 10
-14 -5 -2 -13 10 -18 10 -18 2 0 -8 -6 -7 -16 4 -13 12 -14 18 -4 30 10 12 16
13 27 4 7 -7 11 -14 8 -17z m-119 -24 c3 -4 -1 -5 -10 -4 -8 1 -18 5 -22 8 -3
4 1 5 10 4 8 -1 18 -5 22 -8z"/>
<path d="M2826 5401 c-4 -5 -2 -12 3 -15 5 -4 12 -2 15 3 4 5 2 12 -3 15 -5 4
-12 2 -15 -3z"/>
<path d="M2501 5495 c-14 -24 -15 -32 -5 -32 14 0 15 3 18 30 1 6 12 11 26 11
14 -1 29 3 33 10 6 7 7 4 3 -7 -3 -11 -2 -16 4 -12 6 3 10 1 10 -5 0 -7 -7 -9
-16 -6 -9 4 -24 1 -32 -6 -13 -11 -14 -11 -7 1 6 10 4 12 -5 6 -11 -7 -10 -10
1 -19 8 -6 15 -18 17 -26 2 -8 10 -18 17 -23 8 -4 12 -13 9 -20 -3 -8 4 -13
17 -14 15 -1 18 1 10 11 -7 9 -7 16 1 24 17 17 19 42 3 36 -7 -3 -16 -1 -20 5
-3 6 1 14 9 17 9 3 16 13 16 21 0 8 -4 12 -9 9 -5 -3 -12 1 -15 10 -5 13 -9
14 -21 4 -8 -7 -15 -8 -15 -3 0 22 -31 8 -49 -22z m85 -44 c20 -16 21 -20 8
-25 -8 -3 -22 1 -30 9 -12 12 -12 15 -2 15 10 0 9 3 -2 10 -8 5 -11 10 -7 10
5 0 20 -9 33 -19z"/>
<path d="M3175 5480 c-17 -33 -20 -53 -4 -30 8 12 9 11 5 -6 -5 -17 -2 -20 24
-20 26 0 29 3 24 20 -4 12 -3 18 1 14 11 -11 15 -58 4 -58 -5 0 -8 -6 -6 -12
1 -7 -6 -12 -15 -10 -10 2 -18 -1 -18 -6 0 -5 6 -9 13 -9 6 0 19 -2 27 -4 8
-2 14 3 15 11 0 8 10 19 23 25 30 13 26 35 -4 23 -3 -2 -17 18 -30 45 -14 26
-29 47 -34 47 -5 0 -16 -13 -25 -30z m38 7 c3 -7 -3 -13 -13 -13 -10 0 -16 6
-13 13 3 7 9 13 13 13 4 0 10 -6 13 -13z m-3 -37 c0 -5 -4 -10 -10 -10 -5 0
-10 5 -10 10 0 6 5 10 10 10 6 0 10 -4 10 -10z m60 -35 c0 -2 -6 -8 -13 -14
-10 -8 -14 -7 -14 2 0 8 6 14 14 14 7 0 13 -1 13 -2z"/>
<path d="M3305 5500 c-3 -6 1 -7 9 -4 18 7 21 14 7 14 -6 0 -13 -4 -16 -10z"/>
<path d="M3005 5490 c-4 -6 -10 -8 -15 -5 -5 3 -11 1 -14 -4 -9 -13 4 -42 16
-35 5 3 4 13 -4 22 -7 10 -8 14 -4 10 5 -4 16 -2 24 5 13 10 14 9 8 -1 -4 -7
-1 -15 8 -18 9 -3 13 -10 10 -15 -3 -5 -1 -9 4 -9 19 0 20 28 3 44 -21 19 -27
20 -36 6z"/>
<path d="M2941 5454 c-10 -22 -9 -31 4 -51 9 -13 20 -21 24 -19 10 6 5 61 -7
82 -7 12 -11 10 -21 -12z m24 -46 c2 -20 1 -20 -11 -3 -7 10 -11 22 -8 27 8
13 17 2 19 -24z"/>
<path d="M3075 5472 c10 -10 -33 -42 -48 -36 -9 3 -15 10 -12 14 3 5 1 12 -5
15 -6 4 -9 3 -8 -2 1 -4 -3 -18 -10 -30 -21 -38 -7 -52 51 -54 11 0 17 -5 14
-13 -3 -7 1 -13 8 -13 7 0 11 6 9 12 -3 7 2 18 10 25 9 7 13 16 10 21 -3 5 0
9 7 9 8 0 8 4 -1 15 -10 13 -11 18 -1 28 10 9 11 8 6 -8 -5 -15 -4 -16 3 -6 6
8 12 9 16 3 3 -6 0 -13 -6 -16 -7 -3 -3 -3 10 0 13 3 22 1 22 -6 0 -6 -4 -9
-8 -6 -4 2 -14 0 -22 -5 -12 -7 -13 -11 -2 -18 8 -4 13 -11 13 -15 -3 -20 0
-26 10 -20 8 4 7 9 -2 16 -11 7 -10 8 4 4 12 -4 16 -2 11 6 -4 7 -3 8 4 4 6
-4 8 -14 5 -24 -6 -15 -4 -15 15 1 11 11 25 17 29 14 5 -3 10 4 10 16 2 17 0
19 -7 7 -9 -13 -11 -13 -20 0 -6 10 -10 11 -10 3 0 -7 -4 -13 -10 -13 -5 0 -9
3 -8 8 4 14 -13 52 -23 52 -6 0 -8 3 -5 8 2 4 -11 8 -30 8 -18 0 -32 -2 -29
-4z m11 -53 c0 -20 -16 -40 -28 -33 -5 3 -4 12 3 20 7 8 7 14 1 14 -13 0 -33
-25 -27 -33 3 -4 2 -5 -2 -2 -12 10 -10 43 3 38 6 -2 15 1 19 7 9 15 30 7 31
-11z m-76 -9 c0 -5 -2 -10 -4 -10 -3 0 -8 5 -11 10 -3 6 -1 10 4 10 6 0 11 -4
11 -10z m144 -2 c-3 -4 -9 -8 -15 -8 -5 0 -9 4 -9 8 0 5 7 9 15 9 8 0 12 -4 9
-9z"/>
<path d="M2910 5455 c5 -7 6 -16 2 -20 -4 -5 -1 -5 6 -1 17 10 15 33 -3 33
-10 0 -12 -4 -5 -12z"/>
<path d="M2193 5403 c0 -9 4 -10 14 -2 7 6 13 12 13 14 0 1 -6 2 -13 2 -8 0
-14 -6 -14 -14z"/>
<path d="M2235 5411 c-11 -11 9 -20 21 -10 12 9 13 9 9 -3 -5 -11 1 -14 25
-13 16 1 33 5 37 9 4 3 -4 5 -18 4 -15 -2 -23 2 -22 9 3 12 -42 15 -52 4z"/>
<path d="M2655 5410 c-4 -6 -11 -7 -17 -4 -7 4 -8 2 -4 -5 6 -8 12 -9 20 -2 7
6 17 7 21 3 5 -4 5 -1 1 6 -9 15 -13 15 -21 2z"/>
<path d="M2376 5381 c8 -8 43 -8 38 0 -2 4 -13 7 -24 6 -10 -1 -17 -3 -14 -6z"/>
<path d="M2440 5380 c-8 -5 -12 -12 -9 -15 4 -3 12 1 19 10 14 17 11 19 -10 5z"/>
<path d="M4263 3658 c-25 -7 -39 -21 -69 -76 -78 -141 -81 -143 -235 -147 -85
-1 -115 -6 -150 -23 -85 -41 -184 -161 -209 -253 -9 -31 -13 -36 -35 -31 -19
3 -32 -4 -54 -27 -26 -27 -28 -37 -25 -85 6 -94 51 -169 125 -206 51 -27 95
-25 148 6 36 20 50 23 72 15 28 -10 156 -9 196 2 12 3 30 10 40 15 10 6 23 11
28 12 18 4 58 20 122 50 114 53 158 62 313 66 80 2 168 -1 195 -6 291 -54 317
-56 350 -23 14 14 25 33 25 41 0 8 3 13 6 9 10 -10 62 21 80 48 33 51 -4 122
-96 180 -37 23 -123 61 -160 71 -8 2 -51 13 -95 25 -64 17 -116 22 -260 24
-99 2 -202 -1 -230 -5 -27 -4 -51 -7 -53 -5 -2 2 9 11 25 20 107 67 131 187
53 265 -43 43 -63 50 -107 38z"/>
<path d="M2117 2372 c-17 -7 -34 -18 -38 -24 -5 -7 -26 -7 -73 2 -90 19 -165
3 -323 -66 -112 -49 -146 -60 -243 -81 -32 -7 -212 -7 -265 0 -22 3 -98 15
-170 27 -196 33 -183 34 -232 -16 -23 -24 -47 -44 -53 -44 -28 0 -62 -59 -56
-95 19 -103 239 -212 486 -240 73 -9 218 -9 325 -1 l99 8 -44 -34 c-95 -73
-112 -174 -42 -251 52 -55 126 -54 159 3 10 16 33 56 51 88 47 83 68 92 204
95 134 3 168 17 252 102 46 47 116 165 116 195 0 6 13 10 30 10 53 0 86 56 76
131 -10 83 -64 160 -133 190 -49 21 -79 21 -126 1z"/>
</g>
</svg>
